<?xml version="1.0" standalone="no"?>
<!DOCTYPE svg PUBLIC "-//W3C//DTD SVG 20010904//EN"
 "http://www.w3.org/TR/2001/REC-SVG-20010904/DTD/svg10.dtd">
<svg version="1.0" xmlns="http://www.w3.org/2000/svg"
 width="857.000000pt" height="857.000000pt" viewBox="0 0 857.000000 857.000000"
 preserveAspectRatio="xMidYMid meet">
<metadata>
Created by potrace 1.14, written by Peter Selinger 2001-2017
</metadata>
<g transform="translate(0.000000,857.000000) scale(0.100000,-0.100000)"
fill="#000000" stroke="none">
<path d="M9 7728 c0 -13 -1 -1572 -2 -3466 l-2 -3442 1748 0 1747 0 0 785 0
785 784 0 784 0 0 -783 -1 -782 1749 -3 1749 -2 -1 3460 c0 1903 -3 3463 -6
3466 -3 3 -30 -10 -59 -29 -30 -18 -61 -37 -69 -41 -8 -4 -24 -12 -35 -19 -11
-7 -38 -23 -60 -35 -22 -12 -58 -33 -80 -47 -22 -13 -56 -33 -75 -43 -19 -11
-199 -115 -400 -232 -483 -281 -1026 -597 -1070 -622 -19 -11 -201 -117 -405
-235 -203 -119 -496 -289 -650 -378 -154 -90 -460 -267 -680 -395 -220 -128
-416 -242 -435 -253 -19 -10 -39 -23 -45 -27 -10 -8 -36 -23 -149 -85 l-65
-35 -268 156 c-147 86 -284 166 -303 177 -19 10 -244 141 -500 290 -256 148
-478 278 -495 287 -16 9 -123 72 -237 139 -114 66 -210 121 -214 121 -3 0 -18
8 -32 19 -21 14 -1125 658 -1302 759 -92 52 -216 125 -225 131 -5 5 -35 22
-65 38 -30 17 -176 101 -324 187 -148 86 -277 161 -288 167 -15 8 -18 6 -19
-13z"/>
</g>
</svg>
